<?xml version="1.0" encoding="UTF-8"?>
<svg viewBox="0 0 208 208" version="1.1" xmlns="http://www.w3.org/2000/svg" xmlns:xlink="http://www.w3.org/1999/xlink">
    <title>Desktop HD</title>
    <g id="Desktop-HD" stroke="none" stroke-width="1" fill="none" fill-rule="evenodd">
        <rect id="Rectangle" x="14" y="14" width="180" height="180"></rect>
        <g id="Group" transform="translate(39.000000, 67.000000)" fill="#50585C">
            <path d="M15.6835697,55.0513919 C14.8059494,53.6445396 13.4895191,53 11.8438142,53 L9.75929922,53.58601 L8.11426223,55.2269807 L8.11426223,53.3511777 L4,53.3511777 L4,70 L8.55307234,70 L8.55307234,64.6067095 C9.37592478,65.6031406 10.3083128,66.0720914 11.5145397,66.0720914 C13.050709,66.0720914 14.2576038,65.6031406 15.2447596,64.6067095 C16.4516543,63.4339757 17,61.793005 17,59.5067809 C17,57.6895075 16.5064221,56.1063526 15.6835697,55.0513919 Z M12.3928278,59.6238401 C12.3928278,61.4996431 11.7890464,62.379015 10.4178483,62.379015 C9.21095356,62.379015 8.55307234,61.3825839 8.55307234,59.5067809 L9.04665023,57.4546752 C9.37592478,56.9857245 9.86950267,56.6930764 10.3083128,56.6930764 C11.6795109,56.6930764 12.3928278,57.6895075 12.3928278,59.6238401 L12.3928278,59.6238401 Z" id="Fill-2"></path>
            <path d="M33,58.5549164 C33,54.9797632 31.4735839,53.2210933 28.3650079,53.2210933 C26.952144,53.2210933 25.7650079,53.8656058 24.804288,55.1553447 L24.804288,49 L20,49 L20,66 L24.804288,66 L24.804288,59.727601 C24.804288,58.0859854 25.3699841,57.2066504 26.5,57.2066504 C27.743568,57.2066504 28.308576,57.9689311 28.308576,59.4342514 L28.308576,66 L33,66 L33,58.5549164" id="Fill-3"></path>
            <path d="M46.4692892,55.3452004 C45.6197378,54.4304903 43.9192547,54 41.3119393,54 C37.0607315,54 34.8502415,55.2377416 34.8502415,57.8206836 L39.3850932,57.8206836 C39.4982747,57.1208911 39.9516908,56.7441302 41.0282954,56.7441302 C42.0483092,56.7441302 42.5024155,57.1208911 42.5024155,57.7669542 L41.1987578,58.5742055 L38.3643892,59.0046959 C35.4175293,59.434531 34,60.6185432 34,62.6098067 C34,63.6863602 34.5100069,64.5473408 35.3602484,65.1927487 C36.0973085,65.7313531 37.1173223,66 38.3643892,66 C40.1780538,66 41.6521739,65.5695097 42.8985507,64.5473408 L43.0690131,65.7313531 L48,65.7313531 L48,65.5695097 L47.26294,64.0087365 L47.26294,58.8428525 C47.26294,57.1208911 46.9799862,55.9368789 46.4692892,55.3452004 Z M42.5024155,60.7266572 C42.7287785,62.6098067 42.0483092,63.4707874 40.5182885,63.4707874 C39.4982747,63.4707874 38.9309869,63.2014852 38.9309869,62.6098067 C38.9309869,61.9643988 39.3278123,61.5339085 40.1780538,61.3183357 L42.5024155,60.7266572 L42.5024155,60.7266572 Z" id="Fill-4"></path>
            <path d="M51,54.3297587 L51,66 L55.3159244,66 L55.3159244,61.9812332 C55.3159244,59.669571 56.1579622,58.5683646 57.9996796,58.5683646 L59,58.6789544 L59,54.0549598 L58.4732458,54 C56.7891701,54 55.5786607,54.8806971 54.9474527,56.7520107 L54.8423582,56.7520107 L54.8423582,54.3297587 L51,54.3297587" id="Fill-5"></path>
            <path d="M61,66 L65.832466,66 L65.832466,60.2198391 C65.832466,58.5683646 66.4083267,57.7426273 67.443755,57.7426273 C68.1345076,57.7426273 68.4791833,57.9081769 68.7096677,58.1829759 L68.9968975,60.1099196 L68.9968975,66 L73.88751,66 L73.88751,60.2198391 C73.88751,58.5683646 74.4633707,57.7426273 75.613691,57.7426273 L76.8221577,58.1829759 L77.1093875,60.1099196 L77.1093875,66 L82,66 L82,59.1193029 C82,55.7057641 80.5043034,54 77.3398719,54 C75.613691,54 74.2328863,54.7151475 73.197458,56.2017426 C72.5067054,54.7151475 71.1833467,54 69.1699359,54 C68.3068455,54 67.5586469,54.2747989 66.7530024,54.7151475 L65.3147518,56.0911528 L65.3147518,54.3297587 L61,54.3297587 L61,66" id="Fill-6"></path>
            <path d="M95.5715422,55.3452004 C94.7143283,54.4304903 92.9999006,54 90.428259,54 C85.9710253,54 83.7424084,55.2377416 83.7424084,57.8206836 L88.4285572,57.8206836 C88.5426669,57.1208911 88.9998012,56.7441302 90.0281795,56.7441302 C91.1143084,56.7441302 91.6855524,57.1208911 91.6855524,57.7669542 C91.6855524,58.1974446 91.1713633,58.4660915 90.3141494,58.5742055 L87.4001789,59.0046959 C84.4284578,59.434531 83,60.6185432 83,62.6098067 C83,63.6863602 83.4571343,64.5473408 84.4284578,65.1927487 C85.1708663,65.7313531 86.1428855,66 87.4001789,66 C89.1709657,66 90.6001193,65.5695097 91.8567169,64.5473408 L92.1426867,65.7313531 L97,65.7313531 L97,65.5695097 C96.5999205,65.1927487 96.428756,64.6547996 96.428756,64.0087365 L96.428756,58.8428525 C96.428756,57.1208911 96.1427861,55.9368789 95.5715422,55.3452004 Z M91.6855524,60.7266572 C91.7426072,62.6098067 91.1143084,63.4707874 89.5710452,63.4707874 C88.5426669,63.4707874 88.0284777,63.2014852 88.0284777,62.6098067 C88.0284777,61.9643988 88.4285572,61.5339085 89.2857711,61.3183357 L91.6855524,60.7266572 L91.6855524,60.7266572 Z" id="Fill-7"></path>
            <path d="M109.695864,55.0758982 C108.708759,54.3223763 107.228102,54 105.527716,54 C103.607603,54 102.016748,54.5379491 100.865348,55.6675767 C99.6585153,56.7441302 99,58.3049034 99,60.1880529 C99,62.0718576 99.6585153,63.4707874 100.865348,64.5473408 C102.016748,65.5695097 103.607603,66 105.527716,66 C109.42204,66 111.561212,64.4936114 112,61.3183357 L107.337632,61.3183357 C107.228102,62.3942339 106.624351,62.9328383 105.527716,62.9328383 C104.211354,62.9328383 103.607603,62.0718576 103.607603,60.1880529 C103.607603,58.0893306 104.211354,57.0134323 105.527716,57.0134323 C106.076034,57.0134323 106.405292,57.2283499 106.679116,57.4976521 L107.228102,58.6272797 L111.889802,58.6272797 C111.835705,57.1208911 111.066992,55.8831495 109.695864,55.0758982" id="Fill-8"></path>
            <path d="M118.64281,53 L114,53 L117.823451,64.6124759 L117.823451,65.989239 C117.659846,66.2887889 117.168363,66.4083173 116.458075,66.4083173 L115.529646,66.2887889 L115.529646,69.8804716 L117.550775,70 C119.462168,70 120.827544,69.5809218 121.537832,68.8025295 L123.285619,64.7924973 L127,53 L122.629866,53 L120.663938,60.7817363 L118.64281,53" id="Fill-9"></path>
            <path d="M30.0664377,18.1877879 L43.6050578,18.1877879 C43.0411489,12.413675 40.8974711,8.02526476 37.2310334,4.84960809 C33.4512644,1.67395142 28.3177022,0 21.718389,0 C15.5133313,0 10.4360912,2.13585233 6.37471121,6.29296057 C2.1436778,10.6237211 0,16.2825346 0,23.3839975 C0,30.6014629 2.0873556,36.3755759 6.09241336,40.6486867 C10.3234468,44.8634446 15.9645957,47 23.1285045,47 C28.8822978,47 33.6772401,45.3253455 37.4,42.0920391 C41.179769,38.6850805 43.3227599,34.1813708 44,28.5232603 L30.179769,28.5232603 C29.5025289,33.6041704 27.1898845,36.0866242 22.9588511,36.0866242 C19.5747112,36.0866242 17.2050578,34.8745737 15.9075866,32.3337671 C14.8360912,30.4285137 14.2721823,27.6571082 14.2721823,23.9035481 C14.2721823,19.6311404 15.06138,16.4554838 16.4721823,14.2612786 C17.8822978,12.0670735 19.7436778,10.9126728 22.2822978,10.9126728 C24.53862,10.9126728 26.3436778,11.5475229 27.7537933,12.8179262 C29.0512644,14.0883294 29.7848267,15.8782834 30.0664377,18.1877879" id="Fill-10"></path>
            <polyline id="Fill-11" points="74.3439088 1 66.3856736 30.2765743 58.5996251 1 44 1 59.057628 45 73.656556 45 89 1 74.3439088 1"></polyline>
            <path d="M95.5324754,3.57990786 C91.799328,6.06236163 89.99205,9.64226949 89.99205,14.2612786 C89.99205,18.0141357 91.3327733,21.0744929 93.9574096,23.3839975 C95.9990301,25.0586519 99.0319904,26.5020044 102.880889,27.6571082 L111.862599,29.9666128 C114.486525,30.8327649 115.827958,31.9871657 115.827958,33.4312212 C115.827958,34.4703225 115.244942,35.2204721 114.195372,35.7983755 L109.704517,36.6645276 C108.129451,36.6645276 106.788018,36.3179262 105.504815,35.5094238 C104.280553,34.7585712 103.463905,33.6041704 103.172042,31.9871657 L89,31.9871657 C89.1171713,36.2026267 91.0416205,39.7825346 94.6575966,42.55394 C98.4482645,45.5566475 103.172042,47 108.946099,47 C115.361404,47 120.377044,45.7295967 124.109481,43.1311404 C128.075551,40.4173847 130,36.6068779 130,31.5829145 C130,27.8300574 128.658567,24.9433525 125.917469,22.7491474 C123.99302,21.0744929 121.077231,19.7464399 117.111161,18.5920391 L108.129451,16.2825346 C105.446584,15.4163825 104.04692,14.2612786 104.04692,12.8179262 C104.04692,11.085622 105.621986,10.2194699 108.829638,10.2194699 L112.503845,11.085622 C113.787048,11.7788249 114.544755,12.7026267 114.778388,14.1459792 L128.775028,14.1459792 C128.192012,9.81521869 126.442254,6.46661282 123.410004,4.04180877 C120.02695,1.38570275 115.419634,0 109.529115,0 C103.697537,0 99.0319904,1.15440077 95.5324754,3.57990786" id="Fill-12"></path>
        </g>
    </g>
</svg>