<svg xmlns="http://www.w3.org/2000/svg" xmlns:xlink="http://www.w3.org/1999/xlink" width="60" height="52"><defs><filter id="a" width="106.9%" height="108%" x="-3.4%" y="-2%" filterUnits="objectBoundingBox"><feOffset dy="1" in="SourceAlpha" result="shadowOffsetOuter1"/><feGaussianBlur in="shadowOffsetOuter1" result="shadowBlurOuter1" stdDeviation=".5"/><feColorMatrix in="shadowBlurOuter1" result="shadowMatrixOuter1" values="0 0 0 0 0 0 0 0 0 0 0 0 0 0 0 0 0 0 0.1 0"/><feMerge><feMergeNode in="shadowMatrixOuter1"/><feMergeNode in="SourceGraphic"/></feMerge></filter><filter id="b" width="114%" height="118.8%" x="-7%" y="-9.4%" filterUnits="objectBoundingBox"><feOffset in="SourceAlpha" result="shadowOffsetOuter1"/><feGaussianBlur in="shadowOffsetOuter1" result="shadowBlurOuter1" stdDeviation="1"/><feColorMatrix in="shadowBlurOuter1" values="0 0 0 0 0 0 0 0 0 0 0 0 0 0 0 0 0 0 0.127660779 0"/></filter><path id="c" d="M7.519 7.333h42.963v32H7.519z"/><path id="d" d="M.003 6.128V.045h5.755v6.083z"/></defs><g fill="none" fill-rule="evenodd" filter="url(#a)" transform="translate(1)"><path fill="#D1B900" d="M0 21.618L29 0l29 21.618V50H0z"/><use fill="#000" filter="url(#b)" xlink:href="#c"/><use fill="#FFF" xlink:href="#c"/><g transform="translate(15.037 13.733)"><mask id="e" fill="#fff"><use xlink:href="#d"/></mask><path fill="#000" fill-rule="nonzero" d="M4.47 2a1.13 1.13 0 00-.721-.826 1.933 1.933 0 00-.712-.126c-.496 0-.91.177-1.226.53-.324.354-.477.877-.477 1.585 0 .707.171 1.213.522 1.508.343.294.74.446 1.18.446.433 0 .794-.118 1.064-.345.28-.236.45-.54.514-.918H3.18v-.978h2.577v3.1h-.856l-.126-.724c-.253.27-.469.463-.676.581-.343.194-.757.295-1.262.295-.82 0-1.486-.261-2.018-.792C.27 4.806 0 4.072 0 3.146 0 2.21.28 1.46.829.896c.55-.564 1.28-.85 2.19-.85.783 0 1.414.185 1.892.555.477.37.747.834.82 1.399H4.469" mask="url(#e)"/></g><path fill="#000" fill-rule="nonzero" d="M24.552 18.606c.19-.237.28-.567.28-1 0-.431-.09-.761-.28-.99-.19-.229-.461-.347-.805-.347-.353 0-.624.118-.814.347-.19.229-.28.567-.28.99 0 .433.09.763.28 1 .19.237.461.347.814.347.353 0 .624-.118.805-.347zm.967.618c-.389.45-.976.67-1.763.67-.786 0-1.374-.22-1.763-.67-.389-.449-.579-.99-.579-1.617 0-.618.19-1.16.579-1.61.389-.457.977-.677 1.763-.677.786 0 1.374.229 1.763.678.389.457.579.99.579 1.609 0 .626-.2 1.168-.58 1.617zm4.223-.618c.19-.237.28-.567.28-1 0-.431-.09-.761-.28-.99-.19-.229-.461-.347-.805-.347-.352 0-.624.118-.814.347-.19.229-.28.567-.28.99 0 .433.09.763.28 1 .19.237.462.347.814.347.344 0 .615-.118.805-.347zm.958.618c-.389.45-.976.67-1.763.67-.786 0-1.374-.22-1.763-.67-.388-.449-.578-.99-.578-1.617 0-.618.19-1.16.578-1.61.39-.457.977-.677 1.763-.677.787 0 1.374.229 1.763.678.389.457.579.99.579 1.609 0 .626-.19 1.168-.579 1.617zm4.003-.643c.182-.239.263-.545.263-.92 0-.529-.145-.904-.426-1.134a.96.96 0 00-.607-.204c-.353 0-.606.128-.77.375-.163.247-.244.562-.244.928 0 .4.082.716.254.955.163.238.416.358.76.358.336 0 .598-.12.77-.358zm-.29-3.076c.218.12.39.272.526.477V13.92h1.223v5.837h-1.169v-.597a1.72 1.72 0 01-.589.563c-.217.119-.489.17-.815.17-.535 0-.987-.204-1.359-.613-.371-.41-.552-.929-.552-1.577 0-.74.181-1.32.543-1.738.362-.426.843-.639 1.45-.639.271 0 .525.06.742.18v-.001zm5.064 1.191c.217 0 .426-.025.607-.067.19-.042.353-.11.489-.202a1.05 1.05 0 00.326-.353c.082-.143.118-.32.118-.522 0-.21-.045-.387-.127-.53a.868.868 0 00-.335-.328 1.46 1.46 0 00-.48-.168 3.094 3.094 0 00-.562-.05h-1.866v2.22h1.83zm-1.83.471v2.624l-.589-.008v-5.77h2.437c.688 0 1.214.118 1.576.354.362.235.544.622.544 1.16 0 .362-.082.656-.236.867-.153.21-.416.395-.77.546a.992.992 0 01.435.261c.1.11.182.244.236.387.054.143 1.395 2.674 1.43 2.758a.894.894 0 00.182.244c.045.042.1.06.145.084v.05l-.652.01a1.046 1.046 0 01-.28-.404c-.073-.186-1.46-2.734-1.532-2.826a.733.733 0 00-.28-.21 1.038 1.038 0 00-.372-.093 3.351 3.351 0 00-.416-.025h-1.857v-.009z"/><path fill="#000" fill-rule="nonzero" d="M43.037 17.264a.833.833 0 00-.282.212 158.03 158.03 0 00-1.971 2.85c-.09.153-.182.314-.282.407l-.654-.008v-.051c.037-.026.1-.042.146-.085.054-.05.136-.161.182-.246.036-.085 1.78-2.655 1.871-2.782.118-.161.118-.161.218-.28.1-.11.581-.093.772-.093v.076"/><path fill="#F9E547" d="M0 22.267L58 50H0z"/><path fill="#FFF399" d="M58 22.267V50H0z"/></g></svg>