<svg xmlns="http://www.w3.org/2000/svg" width="24" height="24" viewBox="0 0 24 24">
    <g fill="none" fill-rule="evenodd">
        <path d="M0 0h24v24H0z"/>
        <path fill="#555" d="M4.74 2.667h14.52c1.145 0 2.073.928 2.073 2.074v14.518a2.074 2.074 0 0 1-2.074 2.074H4.741a2.074 2.074 0 0 1-2.074-2.074V4.741c0-1.146.928-2.074 2.074-2.074zM18.223 4.74H15.63A3.63 3.63 0 0 0 12 8.37v2.592H9.926v3.111H12v7.26h3.111v-7.26h3.111v-3.111h-3.11V8.889c0-.573.463-1.037 1.036-1.037h2.074V4.74z"/>
    </g>
</svg>
