<svg xmlns="http://www.w3.org/2000/svg" width="24" height="24" viewBox="0 0 24 24">
    <g fill="none" fill-rule="evenodd">
        <path d="M0 0h24v24H0z"/>
        <g fill="#555">
            <path d="M12 2.667c-2.534 0-2.852.01-3.848.056-.994.045-1.672.203-2.265.434a4.575 4.575 0 0 0-1.654 1.076 4.575 4.575 0 0 0-1.077 1.654c-.23.593-.387 1.271-.433 2.265-.046.996-.056 1.314-.056 3.848s.01 2.852.056 3.848c.045.994.203 1.672.434 2.265a4.571 4.571 0 0 0 1.076 1.654c.466.475 1.03.842 1.654 1.077.593.23 1.271.387 2.265.433.996.046 1.314.056 3.848.056s2.852-.01 3.848-.056c.994-.045 1.672-.203 2.265-.433a4.575 4.575 0 0 0 1.654-1.077 4.575 4.575 0 0 0 1.077-1.654c.23-.593.387-1.271.433-2.265.046-.996.056-1.314.056-3.848s-.01-2.852-.056-3.848c-.045-.994-.203-1.672-.433-2.265a4.575 4.575 0 0 0-1.077-1.654 4.575 4.575 0 0 0-1.654-1.077c-.593-.23-1.271-.387-2.265-.433-.996-.046-1.314-.056-3.848-.056zm0 1.681c2.492 0 2.787.01 3.771.055.91.041 1.405.194 1.734.321.435.17.746.371 1.073.698.327.327.528.638.698 1.073.127.33.28.823.321 1.734.045.983.055 1.279.055 3.771s-.01 2.787-.055 3.771c-.041.91-.194 1.405-.321 1.734-.15.405-.388.772-.698 1.073-.301.31-.668.548-1.073.698-.33.127-.823.28-1.734.321-.983.045-1.279.055-3.771.055s-2.787-.01-3.771-.055c-.91-.041-1.405-.194-1.734-.321a2.891 2.891 0 0 1-1.073-.698 2.892 2.892 0 0 1-.698-1.073c-.127-.33-.28-.823-.321-1.734-.045-.983-.055-1.279-.055-3.771s.01-2.787.055-3.771c.041-.91.194-1.405.321-1.734.17-.435.371-.746.698-1.073.301-.31.668-.548 1.073-.698.33-.127.823-.28 1.734-.321.983-.045 1.279-.055 3.771-.055z"/>
            <path d="M11.997 15.113a3.11 3.11 0 1 1 0-6.22 3.11 3.11 0 0 1 0 6.22zm0-7.901a4.792 4.792 0 1 0-.117 9.582 4.792 4.792 0 0 0 .117-9.582zm6.1-.19a1.12 1.12 0 1 1-2.24 0 1.12 1.12 0 0 1 2.24 0z"/>
        </g>
    </g>
</svg>
