<?xml version="1.0" encoding="utf-8"?>
<!-- Generator: Adobe Illustrator 25.2.0, SVG Export Plug-In . SVG Version: 6.00 Build 0)  -->
<svg version="1.1" id="Layer_1" xmlns="http://www.w3.org/2000/svg" xmlns:xlink="http://www.w3.org/1999/xlink" x="0px" y="0px"
	 viewBox="0 0 208 208" style="enable-background:new 0 0 208 208;" xml:space="preserve">
<style type="text/css">
	.st0{fill:#4F585D;}
</style>
<g>
	<g>
		<g>
			<path class="st0" d="M69.2,101.1v-3.9H62v24.3h7.4V108c1.2-2.8,3.4-4.2,6.4-4.2c0.9,0,1.8,0.1,2.6,0.3v-7
				c-0.7-0.2-1.4-0.4-2.3-0.4C73.6,96.7,71.3,98.1,69.2,101.1z"/>
			<path class="st0" d="M102,118.2c2.4-2.4,3.6-5.4,3.6-9c0-3.5-1.2-6.5-3.6-9c-2.4-2.4-5.3-3.6-8.8-3.6c-3.5,0-6.5,1.2-8.8,3.6
				c-2.3,2.4-3.6,5.4-3.6,8.9c0,3.5,1.2,6.5,3.6,9c2.4,2.5,5.3,3.6,8.8,3.6C96.7,121.9,99.6,120.7,102,118.2z M89.3,113.4
				c-1-1.2-1.5-2.6-1.5-4.2c0-1.6,0.5-3,1.5-4.2c1-1.2,2.3-1.8,3.9-1.8c1.6,0,2.9,0.6,3.9,1.8c1,1.2,1.5,2.6,1.5,4.2
				c0,1.7-0.5,3.1-1.5,4.2c-1,1.2-2.3,1.8-3.9,1.8S90.3,114.6,89.3,113.4z"/>
			<path class="st0" d="M148.6,96.7c-3.4,0-6.3,1.2-8.7,3.6c-2.4,2.4-3.6,5.4-3.6,9c0,3.7,1.2,6.7,3.4,9.1c2.3,2.3,5.3,3.5,8.9,3.5
				c2.5,0,4.6-0.4,6.3-1.4c1.8-0.9,3.4-2.3,4.8-3.8l-5.3-3c-1.4,1.2-3.2,1.9-5.4,1.9c-3.2,0-5-1.4-5.6-4.2h16.7c0-0.2,0-0.4,0.1-0.6
				c0-0.2,0.1-0.5,0.1-0.7c0-0.2,0-0.4,0-0.5c0-3.6-1.1-6.6-3.3-9.1C154.8,97.9,152.1,96.7,148.6,96.7z M143.6,106.9
				c0.4-1.3,0.9-2.4,1.8-3.1c0.8-0.7,1.9-1.1,3-1.1s2.1,0.4,3,1.2c0.9,0.9,1.4,1.8,1.6,2.9L143.6,106.9z"/>
			<path class="st0" d="M177.5,96.7c-2.5,0-4.8,1.5-6.9,4.5v-3.9h-7.2v24.3h7.4V108c1.2-2.8,3.4-4.2,6.4-4.2c0.9,0,1.8,0.1,2.6,0.3
				v-7C179.2,96.8,178.5,96.7,177.5,96.7z"/>
			<path class="st0" d="M54.9,92.5c0.1-0.8,0.1-1.7,0.2-2.6l0,0c0-9.5,7.7-17.3,17.3-17.3s17.3,7.7,17.3,17.3h6.9
				c-0.1-13.3-10.9-24.1-24.3-24.1c-13.2,0-24,10.7-24.2,23.8l0,0c0,0.7-0.1,1.4-0.1,2c-0.3,2.5-1.2,6.1-3.8,9
				c-2,2.3-4.8,3.9-8.2,4.7V89.1h-7.8v32.3h7.8v-9c2.3-0.4,4.5-1.1,6.6-2l7,11.1h9.3l-10.3-15.4c0.3-0.3,0.5-0.5,0.8-0.8
				C53.2,101,54.5,96,54.9,92.5z"/>
			<path class="st0" d="M133.3,128.5V97.1h-7v2c-1.7-1.7-3.7-2.6-6.3-2.6c-3.1,0-5.8,1.2-8.1,3.5c-2.3,2.3-3.4,5.3-3.4,8.8
				c0,3.4,1.2,6.3,3.5,8.6c2.3,2.3,5,3.4,8,3.4c2.4,0,4.6-0.7,6.3-2c0,0.1,0,7.3,0,9.6c0,3.9-1.6,7.7-4.4,10.4
				c-2.8,2.8-6.5,4.3-10.4,4.3c-3.9,0-7.7-1.5-10.4-4.3c-2.8-2.8-4.4-6.5-4.4-10.4h-6.9c0,12,9.8,21.8,21.8,21.8
				c11.8,0,21.4-9.4,21.7-21.2l0,0v-0.4C133.3,128.8,133.3,128.7,133.3,128.5L133.3,128.5z M124.8,113c-1,1.1-2.3,1.7-3.9,1.7
				s-2.9-0.6-3.9-1.7s-1.5-2.5-1.5-4.1c0-1.6,0.5-3,1.5-4.1s2.3-1.7,3.9-1.7s2.9,0.6,3.9,1.7s1.5,2.5,1.5,4.1
				C126.3,110.6,125.7,111.9,124.8,113L124.8,113z"/>
			<path class="st0" d="M138.7,139.8c0,0.7-0.3,1.4-0.8,1.8c-0.5,0.5-1.2,0.7-1.9,0.7c-0.7,0-1.4-0.3-1.9-0.7
				c-0.5-0.5-0.8-1.2-0.8-1.8c0-1.5,1.2-2.6,2.7-2.6C137.5,137.3,138.7,138.5,138.7,139.8z M134,139.8c0,1.2,0.9,2,2,2
				c1.2,0,2-0.9,2-2c0-1.2-0.9-2.1-2-2.1C134.9,137.8,134,138.7,134,139.8L134,139.8z M135.6,141.2H135v-2.6c0.4-0.1,0.7-0.1,1-0.1
				c0.5,0,0.7,0.1,0.9,0.2c0.1,0.1,0.1,0.1,0.2,0.3c0.1,0.1,0.1,0.2,0.1,0.3c0,0.3-0.2,0.5-0.5,0.6l0,0c0.2,0.1,0.4,0.3,0.5,0.7
				c0.1,0.4,0.1,0.6,0.2,0.7h-0.7c-0.1-0.1-0.1-0.4-0.2-0.7s-0.2-0.4-0.5-0.4h-0.3L135.6,141.2z M135.6,139.8h0.3
				c0.4,0,0.6-0.1,0.6-0.4c0-0.2-0.1-0.4-0.6-0.4c-0.1,0-0.2,0-0.4,0L135.6,139.8z"/>
		</g>
	</g>
</g>
</svg>
