<?xml version="1.0" encoding="UTF-8"?>
<svg width="90px" height="24px" viewBox="0 0 90 24" version="1.1" xmlns="http://www.w3.org/2000/svg" xmlns:xlink="http://www.w3.org/1999/xlink">
    <!-- Generator: Sketch 55.2 (78181) - https://sketchapp.com -->
    <title>UI Components / Logos / Goodrx - logo</title>
    <desc>Created with Sketch.</desc>
    <defs>
        <polygon id="path-1" points="0.011 21.01 0.011 0.156 18.507 0.156 18.507 21.01"></polygon>
    </defs>
    <g id="Symbols" stroke="none" stroke-width="1" fill="none" fill-rule="evenodd">
        <g id="UI-Components-/-Navigation-/-Mobile-/-Main-nav" transform="translate(-143.000000, -20.000000)">
            <g id="UI-Components-/-Logos-/-Goodrx---logo" transform="translate(143.000000, 20.000000)">
                <g id="good-rx-logo">
                    <g id="Clipped">
                        <mask id="mask-2" fill="white">
                            <use xlink:href="#path-1"></use>
                        </mask>
                        <g id="a"></g>
                        <path d="M14.366,6.857 C14.046,5.499 13.294,4.547 12.049,4.027 C11.354,3.737 10.6,3.593 9.761,3.593 C8.168,3.593 6.836,4.2 5.821,5.413 C4.779,6.626 4.287,8.417 4.287,10.843 C4.287,13.269 4.837,15.003 5.967,16.013 C7.067,17.024 8.341,17.544 9.761,17.544 C11.151,17.544 12.31,17.14 13.178,16.36 C14.076,15.552 14.626,14.511 14.829,13.212 L10.224,13.212 L10.224,9.862 L18.507,9.862 L18.507,20.49 L15.757,20.49 L15.35,18.006 C14.54,18.93 13.844,19.595 13.178,19.999 C12.078,20.662 10.746,21.009 9.123,21.009 C6.487,21.009 4.345,20.114 2.636,18.294 C0.869,16.475 0,13.962 0,10.785 C0,7.58 0.898,5.01 2.665,3.073 C4.43,1.137 6.777,0.156 9.702,0.156 C12.222,0.156 14.249,0.791 15.784,2.062 C17.319,3.332 18.188,4.922 18.42,6.856 L14.365,6.856 L14.365,6.857" id="Path" fill="#000000" mask="url(#mask-2)"></path>
                    </g>
                    <path d="M30.582,16.707 C31.193,15.894 31.483,14.762 31.483,13.281 C31.483,11.8 31.193,10.668 30.583,9.884 C29.972,9.1 29.1,8.694 27.996,8.694 C26.863,8.694 25.991,9.1 25.381,9.884 C24.771,10.668 24.481,11.829 24.481,13.281 C24.481,14.761 24.771,15.894 25.381,16.707 C25.991,17.52 26.863,17.897 27.996,17.897 C29.13,17.897 30.001,17.491 30.582,16.707 Z M33.692,18.827 C32.442,20.365 30.554,21.12 28.026,21.12 C25.497,21.12 23.609,20.365 22.358,18.826 C21.108,17.287 20.498,15.429 20.498,13.28 C20.498,11.16 21.108,9.302 22.358,7.763 C23.608,6.195 25.498,5.44 28.025,5.44 C30.553,5.44 32.442,6.224 33.691,7.763 C34.941,9.331 35.551,11.16 35.551,13.28 C35.551,15.428 34.912,17.287 33.691,18.826 L33.692,18.827 Z M47.265,16.707 C47.876,15.894 48.166,14.762 48.166,13.281 C48.166,11.8 47.876,10.668 47.266,9.884 C46.655,9.1 45.783,8.694 44.679,8.694 C43.546,8.694 42.674,9.1 42.063,9.884 C41.453,10.668 41.163,11.829 41.163,13.281 C41.163,14.761 41.453,15.894 42.063,16.707 C42.673,17.52 43.546,17.897 44.679,17.897 C45.783,17.897 46.655,17.491 47.265,16.707 Z M50.346,18.827 C49.096,20.365 47.208,21.12 44.68,21.12 C42.151,21.12 40.263,20.365 39.013,18.826 C37.763,17.287 37.153,15.429 37.153,13.28 C37.153,11.16 37.763,9.302 39.013,7.763 C40.263,6.195 42.151,5.44 44.68,5.44 C47.208,5.44 49.096,6.224 50.346,7.763 C51.596,9.331 52.206,11.16 52.206,13.28 C52.206,15.428 51.596,17.287 50.346,18.826 L50.346,18.827 Z M63.213,16.62 C63.796,15.803 64.057,14.75 64.057,13.465 C64.057,11.653 63.591,10.368 62.689,9.579 C62.1444593,9.11853419 61.4520723,8.86998502 60.739,8.879 C59.603,8.879 58.788,9.317 58.264,10.164 C57.739,11.011 57.478,12.092 57.478,13.348 C57.478,14.721 57.74,15.802 58.293,16.62 C58.817,17.437 59.633,17.847 60.738,17.847 C61.816,17.847 62.66,17.437 63.213,16.62 L63.213,16.62 Z M62.281,6.073 C62.979,6.483 63.533,7.008 63.97,7.71 L63.97,0.64 L67.9,0.64 L67.9,20.652 L64.145,20.652 L64.145,18.607 C63.591,19.484 62.951,20.127 62.252,20.535 C61.552,20.944 60.679,21.12 59.632,21.12 C57.913,21.12 56.458,20.42 55.264,19.017 C54.069,17.614 53.488,15.833 53.488,13.612 C53.488,11.07 54.07,9.084 55.235,7.652 C56.399,6.191 57.942,5.462 59.893,5.462 C60.766,5.462 61.582,5.666 62.28,6.075 L62.281,6.074 L62.281,6.073 Z M78.557,10.1580249 C79.2138604,10.1596168 79.8685413,10.082398 80.507,9.928 C81.119,9.783 81.643,9.552 82.08,9.236 C82.517,8.919 82.865,8.515 83.128,8.024 C83.39,7.534 83.507,6.929 83.507,6.236 C83.507,5.516 83.361,4.91 83.099,4.42 C82.8496899,3.95319733 82.4767449,3.56399222 82.021,3.295 C81.555,3.006 81.061,2.833 80.478,2.718 C79.8830395,2.60186936 79.2781874,2.54392948 78.672,2.54498543 L72.675,2.54498543 L72.675,10.157 L78.556,10.157 L78.556,10.1580249 L78.557,10.1580249 Z M72.676,11.773 L72.676,20.77 L70.783,20.741 L70.783,0.96 L78.615,0.96 C80.828,0.96 82.517,1.364 83.681,2.171 C84.846,2.978 85.429,4.305 85.429,6.151 C85.429,7.391 85.166,8.4 84.672,9.121 C84.177,9.842 83.332,10.476 82.197,10.996 C82.78,11.197 83.245,11.486 83.595,11.889 C83.915,12.264 84.177,12.725 84.351,13.216 C84.525,13.706 88.835,22.386 88.951,22.674 C89.068,22.962 89.359,23.336 89.534,23.509 C89.679,23.654 89.854,23.711 90,23.799 L90,23.971 L87.904,24 C87.499585,23.615069 87.1904129,23.1412106 87.001,22.616 C86.769,21.981 82.314,13.244 82.081,12.927 C81.819,12.61 81.528,12.35 81.179,12.207 C80.8057115,12.0237078 80.4000058,11.9156556 79.985,11.889 C79.5407335,11.8306615 79.0930792,11.8019314 78.645,11.803 L72.677,11.803 L72.676,11.773 L72.676,11.773 Z" id="Shape" fill="#000000" fill-rule="nonzero"></path>
                    <path d="M90,12.105 C89.64883,12.2787288 89.339676,12.5268027 89.094,12.832 C88.832,13.152 83.108,21.993 82.758,22.604 C82.466,23.128 82.174,23.68 81.853,24 L79.751,23.971 L79.751,23.796 C79.868,23.709 80.072,23.651 80.219,23.506 C80.394,23.331 80.657,22.952 80.803,22.662 C80.92,22.371 86.526,13.559 86.818,13.122 C87.198,12.57 87.198,12.57 87.518,12.163 C87.839,11.785 89.388,11.843 90,11.843 L90,12.105" id="Path" fill="#000000"></path>
                </g>
            </g>
        </g>
    </g>
</svg>