<?xml version="1.0" encoding="utf-8"?>
<!-- Generator: Adobe Illustrator 25.2.0, SVG Export Plug-In . SVG Version: 6.00 Build 0)  -->
<svg version="1.1" id="Layer_1" xmlns="http://www.w3.org/2000/svg" xmlns:xlink="http://www.w3.org/1999/xlink" x="0px" y="0px"
	 viewBox="0 0 208 208" style="enable-background:new 0 0 208 208;" xml:space="preserve">
<style type="text/css">
	.st0{fill-rule:evenodd;clip-rule:evenodd;fill:#51585C;}
</style>
<g>
	<g>
		<g>
			<path class="st0" d="M141.3,117.6v21.9h3.3c7.8,0,11.5-4.5,11.5-11c0-6.4-3.7-11-11.5-11L141.3,117.6L141.3,117.6z M144.9,143.7
				h-8.3v-30.1h8.3c9.7,0,16.1,6,16.1,15.1C161,137.7,154.6,143.7,144.9,143.7z M106.4,126.1l-3.7,9.4h10.5l-3.7-9.4
				c-0.6-1.4-1.1-3-1.5-4.5C107.4,123.1,106.9,124.7,106.4,126.1z M94.7,143.7L94.7,143.7L94.7,143.7L94.7,143.7z M99.2,143.7h-4.5
				l12.9-30.4h0.5l13.2,30.4h-4.9l-1.8-4.3H101L99.2,143.7z M129.5,113.5h-4.6v30.1h4.6V113.5z M182.1,107.2h-19.7V77.1h19.1v4.1
				H167V93h12.8v4H167v6.1h15.1L182.1,107.2L182.1,107.2z M148.3,107.2h-4.6v-26h-8.9v-4.1h22.6v4.1h-9V107.2z M129.5,107.2h-4.6
				V77.1h4.6V107.2z M102.6,81.2v14.2h2.7c5.9,0,8.4-2.6,8.4-7.1s-2.5-7.2-8.4-7.2C105.2,81.2,102.6,81.2,102.6,81.2z M117,94.1
				c-1.1,1.8-2.7,3-4.6,3.8l0,0l6.4,9.3h-5.4l-5.4-7.9c-0.8,0.1-1.7,0.2-2.5,0.2h-2.8v7.8h-4.7V77.1h7.5c8.3,0,13,4.3,13,11.3
				C118.6,90.4,118,92.4,117,94.1z M28,77.1c0,5-0.1,30.8-0.1,42.4l0,0c0,2.5,0.5,5,1.6,7.2c4.1,8.5,13.9,17.4,27.7,22.1
				c13.8-4.6,23.6-13.6,27.7-22.1c1.1-2.3,1.7-4.7,1.6-7.2c0-11.7-0.1-37.4-0.1-42.4C86.5,77.1,28,77.1,28,77.1z M34.3,95.6
				c0,0,4.9-1.1,7.7,1.7c2.8,2.8,1.6,7.6,1.6,7.6s-4.8,1.2-7.6-1.6C33.1,100.5,34.3,95.6,34.3,95.6z M45.6,82.8c0,0,4.3,2.5,4.3,6.6
				c0,4-4.3,6.6-4.3,6.6s-4.3-2.7-4.3-6.6C41.4,85.3,45.6,82.8,45.6,82.8z M49.3,97.3c2.8-2.8,7.7-1.7,7.7-1.7s1.1,4.9-1.7,7.7
				c-2.8,2.8-7.6,1.6-7.6,1.6S46.4,100.1,49.3,97.3z M71.8,103.6c-0.5,0.9-1.1,1.8-1.6,2.7H58.4c1.3-1.7,5-4.8,8-7.2l0,0
				c1.9-1.5,3.4-2.8,3.9-3.4c0.5-0.5,1-1.8,1.5-3l0,0c0.8-1.8,1.6-3.8,2.4-3.8c2.7,0.9,4.8,2.7,6.2,5.2c0.1,0.8-1.7,2-3.4,3
				c-1.1,0.7-2.2,1.4-2.7,2S73,101.4,71.8,103.6L71.8,103.6L71.8,103.6z M45.5,135.5c1.8,1.3,3.6,2.5,5.5,3.5h12.7
				c1.9-1.1,3.7-2.2,5.5-3.5H45.5z M79.2,124c0.7-1.4,1-2.9,1-4.4c0-2.4,0-5.6,0-8.9H34.5c0,2.1,0,4.2,0,6l0,0c0,1,0,2,0,2.9
				c0,1.5,0.3,3,1,4.4c1.8,3.4,4,6.3,6.9,8.8h30.1C75.1,130.3,77.5,127.3,79.2,124L79.2,124z"/>
		</g>
	</g>
</g>
</svg>
