<svg xmlns="http://www.w3.org/2000/svg" width="24" height="24" viewBox="0 0 24 24">
    <g fill="none" fill-rule="evenodd">
        <path d="M0 0h24v24H0z"/>
        <path fill="#555" d="M21.51 5.882c-.7.33-1.455.546-2.237.65a4.025 4.025 0 0 0 1.709-2.24c-.755.47-1.591.8-2.473.988A3.78 3.78 0 0 0 15.636 4c-2.136 0-3.881 1.807-3.881 4.038 0 .32.036.63.1.922-3.237-.17-6.119-1.779-8.037-4.216a4.103 4.103 0 0 0-.527 2.023c0 1.402.682 2.645 1.736 3.35-.645 0-1.245-.188-1.772-.47v.028c0 1.958 1.345 3.596 3.127 3.963a3.714 3.714 0 0 1-1.755.066c.491 1.59 1.918 2.776 3.637 2.804a7.581 7.581 0 0 1-4.846 1.732c-.309 0-.618-.019-.927-.056A10.77 10.77 0 0 0 8.473 20c7.163 0 11.1-6.155 11.1-11.492 0-.179 0-.348-.01-.527a7.952 7.952 0 0 0 1.946-2.099z"/>
    </g>
</svg>
