<?xml version="1.0" encoding="UTF-8"?>
<svg viewBox="0 0 208 208" version="1.1" xmlns="http://www.w3.org/2000/svg" xmlns:xlink="http://www.w3.org/1999/xlink">
    <title>Desktop HD Copy 2</title>
    <defs>
        <polyline id="path-1" points="33.388 99 0.0262083333 64.1240217 0.0262083333 0.322826087 33.388 27.1647391 33.388 99"></polyline>
    </defs>
    <g id="Desktop-HD-Copy-2" stroke="none" stroke-width="1" fill="none" fill-rule="evenodd">
        <rect id="Rectangle" x="14" y="14" width="180" height="180"></rect>
        <g id="Group-2" transform="translate(55.000000, 54.000000)">
            <g id="Group-3" transform="translate(0.000000, 10.000000)">
                <mask id="mask-2" fill="white">
                    <use xlink:href="#path-1"></use>
                </mask>
                <g id="Clip-2"></g>
                <polyline id="Fill-1" fill="#85898B" mask="url(#mask-2)" points="33.388 99 0.0262083333 64.1240217 0.0262083333 0.322826087 33.388 27.1647391 33.388 99"></polyline>
            </g>
            <path d="M95,70.9251302 L95,4.07630541 C95,1.82891815 93.1683472,0 90.9167159,0 L0.00359570635,0 L0.00359570635,10.5148438 L0,10.5112549 L0.0287656508,75 L90.9167159,75 C93.1683472,75 95,73.1703641 95,70.9251302" id="Fill-4" fill="#50585C"></path>
            <path d="M54.8908075,24.1413073 C56.5665714,23.321716 56.0619866,25.8168687 56.0619866,25.8168687 C55.8293209,28.6429964 53.770301,32.0048188 52.31507,34.5919883 C50.807739,37.2347958 45.5506365,43.4605512 43.2589509,44.8051375 C43.3588687,41.0345895 47.3934058,32.8101439 49.4552805,29.6580343 C50.5151226,27.8176987 53.21433,24.9673184 54.8908075,24.1413073 Z M44.1846177,61.3738643 C60.1222169,64.315548 71.7840488,48.886688 79.2628944,35.5342686 C82.2582866,30.1794627 86.79384,16.1743661 81.7044567,10.8780515 C77.049002,5.76006395 73.4455387,12.4829953 70.6885218,14.7206437 L72.8139156,17.2421888 C77.0682718,22.616254 73.3734552,32.8279767 70.8491039,38.2833591 C67.0543695,45.000584 59.9116758,55.1588085 51.5535538,53.7414648 C49.7457557,53.3227527 48.2398521,51.5566012 47.6110838,49.7105592 C52.1073838,45.2616549 57.4351424,37.4423685 60.424825,32.2452037 C62.9463215,28.008152 67.2856078,19.835778 63.273909,16.4675359 C59.9480744,14.1614099 53.275708,17.4818604 49.7050749,20.4863152 C47.5311496,22.4500532 46.0595035,24.0521438 44.3716067,26.3325906 C39.7796712,32.5647659 35.3968493,43.2429922 35.8600395,51.4688643 C33.6468608,53.0702416 31.1275054,54.6602059 28.127831,53.7414648 C25.160273,53.0795146 24.6200033,50.5508364 24.2017761,48.5728323 C22.311189,36.6505962 34.2585003,21.6062094 40.9658379,12.9637652 C40.9658379,12.9637652 35.6744779,14.3946618 31.8133696,14.5601493 C22.9399573,14.941056 16.3532347,10.8131404 11.5528992,16.7414463 C10.1048051,18.8449927 9.27334649,21.0683749 9,23.6954896 C10.9669528,22.0199282 13.8852656,22.4222342 16.6686894,22.5848685 C21.480444,23.0128535 23.8534912,23.5827869 28.1970597,22.4222342 C24.3281007,27.864777 17.8926821,38.6214672 16.6972373,45.3279925 C16.0713238,49.7840299 16.127706,56.7994177 19.9338596,59.9501008 C26.2458083,64.1415008 32.5042296,61.2140832 38.111758,57.3465253 C39.7732479,59.2731712 41.8194212,60.954439 44.1846177,61.3738643 L44.1846177,61.3738643 Z" id="Fill-5" fill="#FAE547"></path>
            <path d="M102.782963,70.2656325 L103.444327,70.2656325 C104.003066,70.2656325 104.514182,70.2379805 104.514182,69.5918682 C104.514182,69.048945 104.049348,68.9646401 103.620736,68.9646401 L102.782963,68.9646401 L102.782963,70.2656325 Z M102.150441,68.4500434 L103.724032,68.4500434 C104.691261,68.4500434 105.147374,68.833799 105.147374,69.6201946 C105.147374,70.3593795 104.68187,70.667598 104.076849,70.7343675 L105.239939,72.5405145 L104.561805,72.5405145 L103.453047,70.7802293 L102.782963,70.7802293 L102.782963,72.5405145 L102.150441,72.5405145 L102.150441,68.4500434 Z M103.509391,73.4854032 C105.119874,73.4854032 106.366136,72.193853 106.366136,70.4807785 C106.366136,68.8054726 105.119874,67.5139223 103.509391,67.5139223 C101.880797,67.5139223 100.633193,68.8054726 100.633193,70.4807785 C100.633193,72.193853 101.880797,73.4854032 103.509391,73.4854032 Z M103.509391,67 C105.407627,67 107,68.5060218 107,70.4807785 C107,72.4939782 105.407627,74 103.509391,74 C101.601092,74 100,72.4939782 100,70.4807785 C100,68.5060218 101.601092,67 103.509391,67 L103.509391,67 Z" id="Fill-6" fill="#7C7D7A"></path>
        </g>
    </g>
</svg>