<?xml version="1.0" encoding="UTF-8"?>
<svg viewBox="0 0 208 208" version="1.1" xmlns="http://www.w3.org/2000/svg" xmlns:xlink="http://www.w3.org/1999/xlink">
    <title>Desktop HD Copy</title>
    <defs>
        <polygon id="path-1" points="0.0685215507 0.3344 78.3784546 0.3344 78.3784546 87.6410333 0.0685215507 87.6410333"></polygon>
        <polygon id="path-3" points="0 0.181224 94.4528295 0.181224 94.4528295 17.999784 0 17.999784"></polygon>
    </defs>
    <g id="Desktop-HD-Copy" stroke="none" stroke-width="1" fill="none" fill-rule="evenodd">
        <rect id="Rectangle" x="14" y="14" width="180" height="180"></rect>
        <g id="Group-7" transform="translate(57.000000, 40.000000)">
            <g id="Group-3" transform="translate(8.000000, 0.000000)">
                <mask id="mask-2" fill="white">
                    <use xlink:href="#path-1"></use>
                </mask>
                <g id="Clip-2"></g>
                <path d="M22.6729262,48.9210333 L1.74530935,58.5900333 C-0.21787757,59.7223 -0.515419626,62.9387 1.16203832,65.8185 C2.83506636,68.6895 5.78390748,70.0535 7.74709439,68.9278333 L26.6502439,55.7696333 C27.7370477,54.8771667 27.816786,52.8935 26.7883093,51.1217667 C25.760571,49.3500333 23.9834402,48.4311667 22.6729262,48.9210333 M51.7936551,55.7696333 L70.6968047,68.9278333 C72.6570383,70.0535 75.6088327,68.6895 77.2892439,65.8185 C78.9548888,62.9387 78.6721131,59.7223 76.701543,58.5900333 L55.7694963,48.9210333 C54.4597206,48.4311667 52.6877579,49.3500333 51.6570664,51.1217667 C50.6285897,52.8898333 50.7127579,54.8771667 51.7936551,55.7696333 M35.2486925,60.6881 L33.2175804,83.5292333 C33.2175804,85.7908333 35.8762626,87.6410333 39.2208421,87.6410333 C42.5705897,87.6410333 45.2337019,85.7908333 45.2337019,83.5292333 L43.1981598,60.6881 C42.9692813,59.3138333 41.277057,58.2571 39.2178888,58.2571 C37.1668421,58.2571 35.4731411,59.3138333 35.2486925,60.6881 M51.6570664,36.8562333 C52.685543,38.6257667 54.4597206,39.5453667 55.7694963,39.0613667 L76.701543,29.3821 C78.6721131,28.2542333 78.9548888,25.0393 77.2892439,22.1624333 C75.6088327,19.2819 72.6570383,17.9223 70.6968047,19.0516333 L51.7936551,32.2201 C50.7127579,33.1023 50.6285897,35.0867 51.6570664,36.8562333 M26.787571,36.8562333 C27.816786,35.0845 27.7370477,33.1023 26.6502439,32.2201 L7.74709439,19.0516333 C5.78390748,17.9223 2.83506636,19.2819 1.16203832,22.1624333 C-0.515419626,25.0393 -0.21787757,28.2542333 1.74530935,29.3821 L22.6729262,39.0613667 C23.9834402,39.5453667 25.7613093,38.6250333 26.787571,36.8562333 M35.2486925,27.2884333 L33.2175804,4.4473 C33.2175804,2.18863333 35.8762626,0.334033333 39.2208421,0.334033333 C42.5705897,0.334033333 45.2337019,2.18863333 45.2337019,4.4473 L43.1981598,27.2884333 C42.9692813,28.6641667 41.277057,29.7260333 39.2178888,29.7260333 C37.1668421,29.7260333 35.4731411,28.6641667 35.2486925,27.2884333" id="Fill-1" fill="#50585C" mask="url(#mask-2)"></path>
            </g>
            <g id="Group-6" transform="translate(0.000000, 97.000000)">
                <mask id="mask-4" fill="white">
                    <use xlink:href="#path-3"></use>
                </mask>
                <g id="Clip-5"></g>
                <path d="M46.100407,4.540824 L46.100407,6.328584 L46.1541667,6.328584 C46.7757171,5.371704 47.798624,4.243464 50.0756783,4.243464 C51.8482752,4.243464 53.2077326,5.179464 53.7865698,6.597864 L53.8403295,6.597864 C54.3388953,5.882904 54.9088953,5.340024 55.5451744,4.958424 C56.3029651,4.503384 57.1410271,4.243464 58.2029651,4.243464 C60.5993217,4.243464 62.7224612,5.862744 62.7224612,9.950904 L62.7224612,17.703144 L59.0653295,17.703144 L59.0653295,10.491624 C59.0653295,8.419464 58.3473062,7.220664 56.8508721,7.220664 C55.7528488,7.220664 54.9560271,7.939944 54.655562,8.823384 C54.5517248,9.129384 54.5031202,9.544824 54.5031202,9.891144 L54.5031202,17.703144 L50.8481977,17.703144 L50.8481977,10.201464 C50.8481977,8.440344 50.1581589,7.220664 48.6816085,7.220664 C47.5003682,7.220664 46.7609884,8.129304 46.4575775,8.906184 C46.3287016,9.239544 46.2859884,9.622584 46.2859884,9.984024 L46.2859884,17.703144 L42.6273837,17.703144 L42.6273837,4.540824 L46.100407,4.540824 Z M81.5935853,4.540824 L81.5935853,7.023384 L81.6959496,7.023384 C82.3646318,5.127624 83.9582752,4.243464 85.3597093,4.243464 C85.7109884,4.243464 85.9046705,4.269384 86.1874612,4.324824 L86.1874612,7.771464 C85.8501744,7.723944 85.5386628,7.677144 85.1034302,7.677144 C83.518624,7.677144 82.4139729,8.580024 82.1356008,9.991944 C82.0774225,10.282824 82.054593,10.599624 82.054593,10.963944 L82.054593,17.703144 L78.3002519,17.703144 L78.3002519,4.540824 L81.5935853,4.540824 Z M91.2835853,0.181224 L91.2835853,4.324824 L94.4531977,4.324824 L94.4531977,7.677144 L91.2835853,7.677144 L91.2835853,12.622824 C91.2835853,14.222664 91.6996705,14.998824 92.9390891,14.998824 C93.5238178,14.998824 93.9502132,14.927544 94.321376,14.838984 L94.3685078,17.618904 C93.8692054,17.800344 92.8109496,17.999784 91.7350194,17.999784 C90.4690891,17.999784 89.4130426,17.568504 88.7716085,16.901064 C88.0381202,16.137864 87.6942054,14.889384 87.6942054,13.107384 L87.6942054,0.181224 L91.2835853,0.181224 Z M36.4398643,17.703144 L40.0785853,17.703144 L40.0785853,0.181224 L36.4398643,0.181224 L36.4398643,17.703144 Z M30.3760659,13.001544 C30.3760659,13.244184 30.3547093,13.494744 30.2862209,13.713624 C30.0049031,14.625864 29.0379651,15.396264 27.8302132,15.396264 C26.8227713,15.396264 26.0230039,14.837544 26.0230039,13.655304 C26.0230039,11.847384 28.0592442,11.346984 30.3760659,11.359224 L30.3760659,13.001544 Z M34.0118411,9.850824 C34.0118411,6.867144 32.7083527,4.243464 28.3059496,4.243464 C26.0443605,4.243464 24.2489341,4.864104 23.2702132,5.417784 L23.9867636,7.814664 C24.8822674,7.262424 26.3080039,6.805944 27.6578876,6.805944 C29.8937016,6.800184 30.2597093,8.041464 30.2597093,8.838504 L30.2597093,9.026424 C25.3881977,9.019944 22.3106395,10.667304 22.3106395,14.026824 C22.3106395,16.077384 23.8770349,17.999784 26.6011047,17.999784 C28.2779651,17.999784 29.6801357,17.346024 30.520407,16.298424 L30.6028876,16.298424 C30.6028876,16.298424 31.1596318,18.573624 34.225407,17.703144 C34.0641279,16.757064 34.0118411,15.746904 34.0118411,14.531544 L34.0118411,9.850824 Z M4.02498062,0.181224 C4.40056202,2.036664 5.46986434,7.420104 5.46986434,7.420104 C5.91835271,9.634104 6.33222868,11.954664 6.64300388,13.789944 L6.6975,13.789944 C7.00091085,11.841624 7.47812016,9.994104 7.98773256,7.707384 L9.78757752,0.181224 L13.7709496,0.181224 L15.4537016,7.902504 C15.895562,10.050264 16.2468411,11.704104 16.5237403,13.702824 L16.5775,13.702824 C16.8816473,11.685384 17.2756395,9.961704 17.7101357,7.757064 L19.327345,0.181224 L23.149438,0.181224 L18.4141667,17.703144 C15.398469,18.350424 14.2430039,17.162424 13.827655,15.278904 C13.4130426,13.393944 12.6051744,9.806184 12.6051744,9.806184 C12.190562,7.842024 11.866531,6.456024 11.6389729,4.439304 L11.5822674,4.439304 C11.2575,6.436584 10.9202132,7.835544 10.4164922,9.798984 L8.42959302,17.703144 C5.35056202,18.302904 4.28273256,17.414424 3.68916667,14.998824 C3.18176357,12.929544 -0.000368217054,0.181224 -0.000368217054,0.181224 L4.02498062,0.181224 Z M72.2371899,13.001544 C72.2371899,13.244184 72.2150969,13.494744 72.1466085,13.713624 C71.8652907,14.625864 70.8990891,15.396264 69.6906008,15.396264 C68.6838953,15.396264 67.8833915,14.837544 67.8833915,13.655304 C67.8833915,11.847384 69.9196318,11.346984 72.2371899,11.359224 L72.2371899,13.001544 Z M75.8737016,9.850824 C75.8737016,6.867144 74.5702132,4.243464 70.1663372,4.243464 C67.9047481,4.243464 66.1100581,4.864104 65.1306008,5.417784 L65.8471512,7.814664 C66.742655,7.262424 68.1698643,6.805944 69.5197481,6.805944 C71.7533527,6.800184 72.1193605,8.041464 72.1193605,8.838504 L72.1193605,9.026424 C67.2493217,9.019944 64.1717636,10.667304 64.1717636,14.026824 C64.1717636,16.077384 65.7388953,17.999784 68.4637016,17.999784 C70.1398256,17.999784 71.5419961,17.346024 72.3807946,16.298424 L72.4640116,16.298424 C72.4640116,16.298424 73.0200194,18.573624 76.086531,17.703144 C75.9252519,16.757064 75.8737016,15.746904 75.8737016,14.531544 L75.8737016,9.850824 Z" id="Fill-4" fill="#50585C" mask="url(#mask-4)"></path>
            </g>
        </g>
    </g>
</svg>